Coordinates
version=1
nRows=11
nColumns=36
inDegrees=yes

Units are S.I. units (second, meters, Newtons, ...)
If the header above contains a line with 'inDegrees', this indicates whether rotational values are in degrees (yes) or radians (no).

endheader
time	pelvis_tilt	pelvis_list	pelvis_rotation	pelvis_tx	pelvis_ty	pelvis_tz	hip_flexion_r	hip_adduction_r	hip_rotation_r	knee_angle_r	knee_angle_r_beta	ankle_angle_r	subtalar_angle_r	mtp_angle_r	hip_flexion_l	hip_adduction_l	hip_rotation_l	knee_angle_l	knee_angle_l_beta	ankle_angle_l	subtalar_angle_l	mtp_angle_l	lumbar_extension	lumbar_bending	lumbar_rotation	arm_flex_r	arm_add_r	arm_rot_r	elbow_flex_r	pro_sup_r	arm_flex_l	arm_add_l	arm_rot_l	elbow_flex_l	pro_sup_l
      1.23000000	     -6.42924357	      8.10976906	     -0.55756339	     -0.51731435	      1.16987343	     -0.57212258	     27.85705070	    -11.73129925	     -0.88918220	      7.18774752	      0.12544986	    -39.13067071	     -3.46117883	     -7.01496163	     31.79870906	      4.37580141	     -5.39181091	     20.53179687	      0.35834746	    -29.19568917	     -3.36681904	     -7.01496163	    -21.75667650	     -0.99659131	      2.92401669	    104.56291408	    -55.90620290	     84.95265598	     67.51982660	     97.62107518	    108.57029657	    -81.57954122	     80.40436531	     96.81555242	    107.57195661
      1.24000000	     -6.50052881	      7.91330934	     -0.75218146	     -0.50586528	      1.14903419	     -0.57274512	     28.41751890	    -11.77194180	     -1.54716675	      7.20168136	      0.12569305	    -39.09506872	     -3.26187532	     -7.03681684	     31.62445866	      4.24497504	     -4.82136029	     18.20859565	      0.31779995	    -30.20784005	     -3.41408387	     -7.03681684	    -21.69543523	     -0.26740961	      4.13008032	    110.59947010	    -57.54239879	     91.47005151	     68.89817231	     98.92559683	    112.74766194	    -83.30166602	     82.69631687	     97.63063655	    108.49592631
      1.25000000	     -6.55227763	      7.76187718	     -0.97197399	     -0.49458324	      1.12703511	     -0.57324609	     29.02957031	    -11.82365907	     -2.02000207	      7.38250979	      0.12884910	    -39.38897417	     -3.45898547	     -7.06420627	     31.60089823	      4.10520114	     -4.14131638	     16.45524907	      0.28719828	    -31.35246349	     -4.34729474	     -7.06420627	    -21.66952083	      0.15491142	      6.43471832	    118.29978429	    -60.84081969	     99.48223591	     71.65624669	     99.70085794	    118.59330044	    -83.07292735	     87.03341171	     98.10609378	    108.97511737
      1.26000000	     -6.56526709	      7.80800542	     -1.25258300	     -0.48339409	      1.10378683	     -0.57284815	     29.72817337	    -11.94905267	     -2.10053021	      7.79569472	      0.13606054	    -40.02151453	     -4.09759180	     -7.40770683	     31.71830846	      3.95610824	     -3.94850443	     15.26480333	      0.26642108	    -32.27049079	     -4.87305265	     -7.40770683	    -21.81207980	     -0.22941882	      6.68105599	    121.45459400	    -61.92831024	    101.54240611	     72.99435929	     95.72173974	    164.94953117	    -83.21232384	    133.58765638	    100.95423204	    106.32476171
      1.27000000	     -6.67088897	      7.66699474	     -1.55748410	     -0.47212083	      1.07965054	     -0.57305126	     30.51926928	    -11.88129280	     -2.04905630	      8.36700897	      0.14603186	    -40.91092052	     -4.68883633	     -7.41854936	     32.09965095	      3.64572781	     -3.70365549	     14.63921496	      0.25550250	    -33.48966073	     -6.19501108	     -7.41854936	    -21.78918109	     -0.02350268	      9.20250650	    131.08214744	    -65.28720927	    110.53310850	     76.32356603	     96.46105987	    168.36051141	    -82.47909792	    135.60362920	    102.32517308	    106.43278574
      1.28000000	     -6.86706816	      7.49887870	     -1.85572655	     -0.46082561	      1.05445969	     -0.57323148	     31.45792755	    -11.73317562	     -1.66914158	      9.28844585	      0.16211396	    -41.43402387	     -5.20189196	     -7.43130872	     32.74224106	      3.27354940	     -3.56909125	     14.61422328	      0.25506631	    -34.53221981	     -7.69972061	     -7.43130872	    -21.73194582	      0.19259789	     11.71873909	    143.46053458	    -68.08701543	    122.05295472	     80.07199702	     95.56847143	    172.37766256	    -81.99719493	    138.36355021	    104.29076520	    106.02235284
      1.29000000	     -7.02100366	      7.32392614	     -2.17887135	     -0.44949519	      1.02841195	     -0.57338055	     32.43035186	    -11.52354249	     -0.88927948	     10.36050197	      0.18082487	    -42.42808293	     -5.24213406	     -7.45528713	     33.50366767	      2.84047506	     -3.52361169	     15.17856272	      0.26491590	    -35.15045293	     -9.03819715	     -7.45528713	    -21.80705899	      0.44201483	     14.52783698	    160.73330472	    -69.81486705	    138.69459898	     84.46519160	     91.09693910	    173.34182786	    -81.92854685	    138.15952925	    106.64731059	    103.41939293
      1.30000000	     -7.16178734	      6.96352274	     -2.60519501	     -0.43814584	      1.00161181	     -0.57327766	     33.47035545	    -10.97819447	      0.01986583	     11.63138610	      0.20300598	    -43.58254167	     -5.27417347	     -7.45782108	     34.47293195	      2.09179236	     -3.69020240	     16.24794521	      0.28358014	    -35.89454994	     -9.39364793	     -7.45782108	    -21.67278939	      0.97952835	     16.89226011	    174.54743366	    -69.71057856	    151.49868378	     87.30940663	     92.15188345	    176.47449845	    -82.42726057	    140.23111369	    108.76787185	    104.76932001
      1.31000000	     -7.40052297	      6.49551665	     -3.21122288	     -0.42725380	      0.97419912	     -0.57291548	     34.86183739	    -10.04166160	      1.13645459	     14.37048993	      0.25081236	    -41.19501458	     -7.59015492	     -7.45972828	     35.72161240	      1.12240575	     -3.91706261	     17.76590588	      0.31007355	    -37.11016339	     -9.78960463	     -7.45972828	    -20.84581535	      1.86153767	     18.54054961	    178.48645754	    -69.10120572	    154.65565185	     88.08245108	     91.68636196	    176.73599001	    -83.98224322	    139.73253235	    111.00639163	    104.60203661
      1.32000000	     -7.87668186	      6.04073156	     -3.84284014	     -0.41721561	      0.94610481	     -0.57254536	     37.33648200	     -8.90792260	      2.09909780	     20.93834812	      0.36544311	    -29.72356383	    -12.06553126	     -7.46758403	     37.55092240	      0.12899104	     -4.18314050	     20.85909191	      0.36405983	    -34.43478158	    -11.11628038	     -7.46758403	    -19.75164167	      2.93337793	     19.83767427	    179.20743728	    -68.61594074	    154.39669065	     88.81158447	     88.67046324	    172.80043160	    -86.78063187	    134.78298878	    113.90844248	    100.78745080
      1.33000000	     -8.72482587	      5.94704118	     -4.22002684	     -0.40747821	      0.91694988	     -0.57213673	     41.15379860	     -8.17183659	      2.88744151	     30.50632239	      0.53243577	    -11.19784241	    -12.97092380	     -7.50288540	     40.64283590	     -0.60635045	     -5.01047935	     27.27624373	      0.47606026	    -22.95413616	    -12.17939036	     -7.50288540	    -22.37237179	     -0.01865326	     -3.78300114	    120.48474823	    -56.19561976	     88.34730204	     78.65159051	     84.79697079	     83.74464291	   -145.98302333	     41.84004459	    129.74563203	     91.01631446
